<mxfile host="app.diagrams.net" agent="Mozilla/5.0 (Windows NT 10.0; Win64; x64) AppleWebKit/537.36 (KHTML, like Gecko) Chrome/131.0.0.0 Safari/537.36" version="24.8.9">
  <diagram name="หน้า-1" id="O3I57W9G2pR_3P7PdWP-">
    <mxGraphModel dx="1050" dy="530" grid="1" gridSize="10" guides="1" tooltips="1" connect="1" arrows="1" fold="1" page="1" pageScale="1" pageWidth="827" pageHeight="1169" math="0" shadow="0">
      <root>
        <mxCell id="0" />
        <mxCell id="1" parent="0" />
        <mxCell id="eEYJCGPQC6Voqe_gPSTT-4" value="" style="edgeStyle=orthogonalEdgeStyle;rounded=0;orthogonalLoop=1;jettySize=auto;html=1;" edge="1" parent="1" source="eEYJCGPQC6Voqe_gPSTT-2" target="eEYJCGPQC6Voqe_gPSTT-3">
          <mxGeometry relative="1" as="geometry" />
        </mxCell>
        <mxCell id="eEYJCGPQC6Voqe_gPSTT-2" value="Start" style="ellipse;whiteSpace=wrap;html=1;" vertex="1" parent="1">
          <mxGeometry x="354" y="10" width="120" height="80" as="geometry" />
        </mxCell>
        <mxCell id="eEYJCGPQC6Voqe_gPSTT-6" value="" style="edgeStyle=orthogonalEdgeStyle;rounded=0;orthogonalLoop=1;jettySize=auto;html=1;" edge="1" parent="1" source="eEYJCGPQC6Voqe_gPSTT-3" target="eEYJCGPQC6Voqe_gPSTT-5">
          <mxGeometry relative="1" as="geometry" />
        </mxCell>
        <mxCell id="eEYJCGPQC6Voqe_gPSTT-3" value="Input 1 2 3 4" style="shape=parallelogram;perimeter=parallelogramPerimeter;whiteSpace=wrap;html=1;fixedSize=1;" vertex="1" parent="1">
          <mxGeometry x="354" y="180" width="120" height="60" as="geometry" />
        </mxCell>
        <mxCell id="eEYJCGPQC6Voqe_gPSTT-8" value="" style="edgeStyle=orthogonalEdgeStyle;rounded=0;orthogonalLoop=1;jettySize=auto;html=1;" edge="1" parent="1" source="eEYJCGPQC6Voqe_gPSTT-5" target="eEYJCGPQC6Voqe_gPSTT-7">
          <mxGeometry relative="1" as="geometry" />
        </mxCell>
        <mxCell id="eEYJCGPQC6Voqe_gPSTT-5" value="Output 4 3 2 1" style="shape=parallelogram;perimeter=parallelogramPerimeter;whiteSpace=wrap;html=1;fixedSize=1;" vertex="1" parent="1">
          <mxGeometry x="354" y="320" width="120" height="60" as="geometry" />
        </mxCell>
        <mxCell id="eEYJCGPQC6Voqe_gPSTT-7" value="End" style="ellipse;whiteSpace=wrap;html=1;" vertex="1" parent="1">
          <mxGeometry x="354" y="460" width="120" height="80" as="geometry" />
        </mxCell>
      </root>
    </mxGraphModel>
  </diagram>
</mxfile>
